<svg width="53" height="53" viewBox="0 0 53 53" fill="none" xmlns="http://www.w3.org/2000/svg">
<rect x="1" y="1" width="51" height="51" rx="25.5" stroke="black"/>
<g clip-path="url(#clip0_2_2170)">
<path d="M26.5 16.5C22.4261 16.5 19.1119 19.8142 19.1119 23.8881C19.1119 25.2292 19.7134 26.6717 19.7386 26.7325C19.9329 27.1936 20.3162 27.9098 20.5926 28.3296L25.6582 36.005C25.8655 36.3196 26.1723 36.5 26.5 36.5C26.8277 36.5 27.1345 36.3196 27.3418 36.0054L32.4079 28.3296C32.6847 27.9098 33.0676 27.1936 33.2619 26.7325C33.2871 26.6721 33.8881 25.2297 33.8881 23.8881C33.8881 19.8142 30.5739 16.5 26.5 16.5ZM32.4605 26.3953C32.2871 26.8086 31.9303 27.4748 31.6821 27.8512L26.6161 35.5269C26.5161 35.6786 26.4844 35.6786 26.3844 35.5269L21.3184 27.8512C21.0702 27.4748 20.7134 26.8081 20.54 26.3948C20.5326 26.377 19.9811 25.0493 19.9811 23.8881C19.9811 20.2936 22.9055 17.3692 26.5 17.3692C30.0946 17.3692 33.0189 20.2936 33.0189 23.8881C33.0189 25.0511 32.4661 26.3822 32.4605 26.3953Z" fill="black"/>
<path d="M26.5 19.9766C24.3431 19.9766 22.5886 21.7315 22.5886 23.8879C22.5886 26.0444 24.3431 27.7992 26.5 27.7992C28.6569 27.7992 30.4113 26.0444 30.4113 23.8879C30.4113 21.7315 28.6569 19.9766 26.5 19.9766ZM26.5 26.9301C24.8229 26.9301 23.4578 25.5654 23.4578 23.8879C23.4578 22.2104 24.8229 20.8457 26.5 20.8457C28.1771 20.8457 29.5421 22.2104 29.5421 23.8879C29.5421 25.5654 28.1771 26.9301 26.5 26.9301Z" fill="black"/>
</g>
<defs>
<clipPath id="clip0_2_2170">
<rect width="20" height="20" fill="white" transform="translate(16.5 16.5)"/>
</clipPath>
</defs>
</svg>
